<?xml version="1.0" encoding="UTF-8"?>
<svg version="1.1" xmlns="http://www.w3.org/2000/svg" width="100" height="97">
<path d="M0 0 C2.8011903 5.37828538 3.69096165 9.09912692 2 15 C-0.02346623 19.5138862 -1.7799105 21.96067104 -5.6875 24.9375 C-8.59546689 27.23032005 -9.49621492 28.68248219 -9.9375 32.375 C-9.958125 33.57125 -9.97875 34.7675 -10 36 C-6.71094063 35.45182344 -3.89339771 34.68571867 -1 33 C0.40327121 30.56680496 1.18579818 28.19277563 2.046875 25.5234375 C3.57182103 21.4860804 5.5674269 19.59194295 9 17 C11.875 17.125 11.875 17.125 14 18 C15.64041859 22.2305532 16.23740761 24.0978511 15.0625 28.5625 C13.01498814 32.61182032 9.79386546 35.56866256 6 38 C3.77734375 38.6640625 3.77734375 38.6640625 2 39 C2 40.65 2 42.3 2 44 C2.90492187 44.23783203 2.90492187 44.23783203 3.828125 44.48046875 C8.96076049 45.97886717 12.26801019 47.10518492 15 52 C16.39604194 55.92636797 16.10796775 58.38924733 14.5 62.125 C12.11852604 66.45646135 9.48623927 68.04236832 5 70 C4.01 70 3.02 70 2 70 C1.79375 71.175625 1.5875 72.35125 1.375 73.5625 C-0.16828716 79.69217576 -3.73997681 83.5093464 -8.9375 86.9375 C-13.83296309 88.63592597 -17.41113452 88.61110211 -22.25 86.75 C-25.02925596 84.98138257 -26.50000903 83.9166491 -28 81 C-28.4375 77.9375 -28.4375 77.9375 -28 75 C-26.3125 73.0625 -26.3125 73.0625 -24 72 C-19.58974359 72.41025641 -19.58974359 72.41025641 -18 74 C-17.76744186 78.53488372 -17.76744186 78.53488372 -19 81 C-16.36 81.33 -13.72 81.66 -11 82 C-10.67 78.7 -10.34 75.4 -10 72 C-11.60875 71.773125 -13.2175 71.54625 -14.875 71.3125 C-22.61529185 69.86804399 -29.3951335 67.42623329 -34.5625 61.25 C-37.38223277 56.96015014 -38.47591485 53.12458312 -38 48 C-36.25426149 39.74625101 -31.74927786 34.79903267 -25 30 C-23.55173828 29.24589844 -23.55173828 29.24589844 -22.07421875 28.4765625 C-15.97556686 25.32984823 -15.97556686 25.32984823 -12.77734375 19.47265625 C-12.23812224 16.83759263 -11.89354673 14.22654627 -11.5390625 11.5546875 C-10.86576731 7.1148424 -9.63871795 4.57503722 -7 1 C-4.53721199 -0.231394 -2.7204945 -0.07159196 0 0 Z M-6.5625 6.0625 C-9.84753994 10.49016253 -10.2613613 15.64209333 -10 21 C-4.02022342 16.5591357 -4.02022342 16.5591357 -1 10 C-1.29519768 7.2663568 -1.29519768 7.2663568 -2 5 C-4.90145793 4.71884499 -4.90145793 4.71884499 -6.5625 6.0625 Z M8 22 C5.08772731 25.28804981 3.50298788 27.59885603 3 32 C6.34148439 30.82596494 8.81103718 29.84565166 11 27 C11.71447643 24.89667109 11.71447643 24.89667109 12 23 C10.68 22.67 9.36 22.34 8 22 Z M-25.8046875 39.76171875 C-29.83413916 44.49453624 -30.35608755 48.48531681 -30.27734375 54.49609375 C-29.72335235 59.49762173 -27.05446671 62.09617139 -23.375 65.25 C-19.03186747 67.50199465 -14.80678165 68.2780328 -10 69 C-10.54278267 60.98529415 -11.13505261 52.98696098 -12 45 C-16.49981858 47.18910093 -18.35709972 49.25384365 -20 54 C-19.77131906 57.68815293 -19.77131906 57.68815293 -19 61 C-19 61.66 -19 62.32 -19 63 C-22.1950441 58.10758872 -23.78074782 55.02291176 -23 49 C-21.5625 46.25 -21.5625 46.25 -20 44 C-19.67 43.01 -19.34 42.02 -19 41 C-16.5625 39.875 -16.5625 39.875 -14 39 C-13.34 38.67 -12.68 38.34 -12 38 C-12 35.36 -12 32.72 -12 30 C-16.23570075 30 -22.86491104 36.89193697 -25.8046875 39.76171875 Z M-11 44 C-9.68 52.25 -8.36 60.5 -7 69 C-5.02 68.67 -3.04 68.34 -1 68 C-1 62.39 -1 56.78 -1 51 C-2.98 51.66 -4.96 52.32 -7 53 C-5.52307692 47.33846154 -5.52307692 47.33846154 -2.875 45.625 C-2.25625 45.41875 -1.6375 45.2125 -1 45 C-1 43.68 -1 42.36 -1 41 C-4.809723 40.80304035 -4.809723 40.80304035 -11 44 Z M2 51 C2 56.94 2 62.88 2 69 C7.40010113 63.93611884 7.40010113 63.93611884 9.375 57.5 C8.87400297 54.16001979 7.63671907 53.03404043 5 51 C4.01 51 3.02 51 2 51 Z M-7 72 C-7.80212628 73.87387216 -7.80212628 73.87387216 -8.1875 76.0625 C-8.34605469 76.79597656 -8.50460938 77.52945313 -8.66796875 78.28515625 C-8.77753906 78.85105469 -8.88710938 79.41695312 -9 80 C-5.17475764 78.549046 -3.80909034 76.61818068 -2 73 C-2 72.34 -2 71.68 -2 71 C-4.21081851 70.89459074 -4.21081851 70.89459074 -7 72 Z " fill="#235693" transform="translate(60,4)"/>
<path d="M0 0 C0.70125 0.28875 1.4025 0.5775 2.125 0.875 C3.76541859 5.1055532 4.36240761 6.9728511 3.1875 11.4375 C1.13998814 15.48682032 -2.08113454 18.44366256 -5.875 20.875 C-8.09765625 21.5390625 -8.09765625 21.5390625 -9.875 21.875 C-9.875 23.525 -9.875 25.175 -9.875 26.875 C-10.865 26.875 -11.855 26.875 -12.875 26.875 C-12.875 25.885 -12.875 24.895 -12.875 23.875 C-13.6175 24.205 -14.36 24.535 -15.125 24.875 C-17.875 25.875 -17.875 25.875 -21.875 25.875 C-21.875 25.215 -21.875 24.555 -21.875 23.875 C-25.73158398 26.02578722 -29.41819097 28.10955278 -32.875 30.875 C-33.535 30.215 -34.195 29.555 -34.875 28.875 C-30.48867167 22.47827118 -25.10896973 19.26597739 -17.625 17.6875 C-14.47468068 16.85189701 -13.25666261 16.51337615 -11.5625 13.6796875 C-10.93640382 11.93183566 -10.3464517 10.17062234 -9.79296875 8.3984375 C-8.13351859 3.83671493 -5.2205703 -0.22698132 0 0 Z M-3.875 4.875 C-6.78727269 8.16304981 -8.37201212 10.47385603 -8.875 14.875 C-5.53351561 13.70096494 -3.06396282 12.72065166 -0.875 9.875 C-0.16052357 7.77167109 -0.16052357 7.77167109 0.125 5.875 C-1.195 5.545 -2.515 5.215 -3.875 4.875 Z " fill="#9850D5" transform="translate(71.875,21.125)"/>
<path d="M0 0 C3.26570113 2.3052008 4.6821948 5.14005652 6.0625 8.875 C5.97380561 13.30971966 4.65906641 16.45959997 2 20 C-1.11082318 22.52533945 -3.91067148 24 -8 24 C-8.33 25.98 -8.66 27.96 -9 30 C-9.66 29.67 -10.32 29.34 -11 29 C-10.67 27.02 -10.34 25.04 -10 23 C-11.32 22.67 -12.64 22.34 -14 22 C-13.01 22 -12.02 22 -11 22 C-11 16.39 -11 10.78 -11 5 C-12.98 5.99 -14.96 6.98 -17 8 C-18 5 -18 5 -16.8125 2.4375 C-12.31900211 -3.60547992 -6.49958416 -2.19541509 0 0 Z M-8 5 C-8 10.94 -8 16.88 -8 23 C-2.59989887 17.93611884 -2.59989887 17.93611884 -0.625 11.5 C-1.12599703 8.16001979 -2.36328093 7.03404043 -5 5 C-5.99 5 -6.98 5 -8 5 Z " fill="#2C8CBD" transform="translate(70,50)"/>
<path d="M0 0 C2.79613305 5.36857546 3.70472634 9.10883687 2 15 C0.02274841 19.79215656 -2.73341706 23.03709518 -7 26 C-7.66 25.67 -8.32 25.34 -9 25 C-11.27803584 26.23669436 -11.27803584 26.23669436 -13.75 27.9375 C-17.68076426 30.40419699 -20.23957257 31.75164644 -25 31 C-22.37255931 28.83622531 -19.91678108 26.95448305 -16.921875 25.31640625 C-13.1239193 22.30546009 -13.01224339 20.41926993 -12.375 15.6875 C-11.48422591 10.00924242 -10.44764872 5.67100795 -7 1 C-4.53721199 -0.231394 -2.7204945 -0.07159196 0 0 Z M-6.5625 6.0625 C-9.84753994 10.49016253 -10.2613613 15.64209333 -10 21 C-4.02022342 16.5591357 -4.02022342 16.5591357 -1 10 C-1.29519768 7.2663568 -1.29519768 7.2663568 -2 5 C-4.90145793 4.71884499 -4.90145793 4.71884499 -6.5625 6.0625 Z " fill="#37BFE7" transform="translate(60,4)"/>
<path d="M0 0 C0.66 0.66 1.32 1.32 2 2 C1.34 2.66 0.68 3.32 0 4 C-0.38403123 5.94151362 -0.38403123 5.94151362 -0.5 8.0625 C-0.665 9.361875 -0.83 10.66125 -1 12 C-1.99 12.495 -1.99 12.495 -3 13 C-3.33 11.02 -3.66 9.04 -4 7 C-4.72445312 7.55429687 -5.44890625 8.10859375 -6.1953125 8.6796875 C-7.64550781 9.76636719 -7.64550781 9.76636719 -9.125 10.875 C-10.55199219 11.95394531 -10.55199219 11.95394531 -12.0078125 13.0546875 C-14.97861462 14.98609671 -17.64171439 15.94426583 -21 17 C-25.06908976 21.34971664 -24.71262504 27.34168613 -25 33 C-25.99 33 -26.98 33 -28 33 C-29.42393667 25.64299388 -28.90565411 20.50227031 -25 14 C-20.76909274 8.83524384 -16.78831833 6.53129915 -10.25390625 5.53125 C-6.34164246 4.60912197 -3.23590203 2.31009899 0 0 Z " fill="#365DB2" transform="translate(51,28)"/>
<path d="M0 0 C0.99 0.33 1.98 0.66 3 1 C2.505 1.94875 2.01 2.8975 1.5 3.875 C-0.47898853 8.54314041 -0.726716 13.0038275 0 18 C2.55678046 23.5226458 5.88962202 25.20375545 11 28 C11.33 28.99 11.66 29.98 12 31 C4.62201123 30.5388757 -0.35850222 27.64149778 -5.5625 22.4375 C-7 20 -7 20 -6.609375 18.12109375 C-6.40828125 17.42113281 -6.2071875 16.72117187 -6 16 C-5.88077621 14.54282036 -5.77710616 13.08430036 -5.6875 11.625 C-5.19159949 6.69851298 -3.53739097 3.53739097 0 0 Z " fill="#23277A" transform="translate(31,43)"/>
<path d="M0 0 C1 1 1 1 1.1875 3.4375 C1 6 1 6 -1 8 C-1 8.99 -1 9.98 -1 11 C7.03847272 11.57655126 7.03847272 11.57655126 14 8 C14.33 7.34 14.66 6.68 15 6 C15.66 6 16.32 6 17 6 C14.96442645 10.83577878 11.67308956 12.86276122 7 15 C1.77124667 15.72120736 -1.56157475 14.82445243 -6 12 C-8.4758303 9.60669737 -8.94699697 8.37102124 -9.4375 4.9375 C-9 2 -9 2 -7.3125 0.0625 C-4.41290937 -1.26974434 -2.99317984 -0.97076103 0 0 Z " fill="#283793" transform="translate(41,77)"/>
<path d="M0 0 C3 6.5 3 6.5 3 11 C1.68 11.33 0.36 11.66 -1 12 C-1.33 9.69 -1.66 7.38 -2 5 C-4.52667479 6.04668963 -4.52667479 6.04668963 -7 8 C-8.24805959 11.15550657 -8.24805959 11.15550657 -8.8125 14.6875 C-9.16248047 16.45673828 -9.16248047 16.45673828 -9.51953125 18.26171875 C-9.75736328 19.61716797 -9.75736328 19.61716797 -10 21 C-10.66 21 -11.32 21 -12 21 C-12.74486684 13.22027969 -11.36345901 7.54518852 -7 1 C-4.53721199 -0.231394 -2.7204945 -0.07159196 0 0 Z " fill="#2AC9E7" transform="translate(60,4)"/>
<path d="M0 0 C0.33 0.99 0.66 1.98 1 3 C-0.6396875 3.804375 -0.6396875 3.804375 -2.3125 4.625 C-6.07336764 6.79913241 -7.66984679 8.76013665 -9 13 C-8.75485176 16.61593648 -8.14329929 19.57010213 -7 23 C-10.01574271 21.96008872 -10.97991051 21.03085171 -12.75 18.3125 C-14.14470789 14.61652409 -14.30150288 11.91953748 -14 8 C-13.67 7.34 -13.34 6.68 -13 6 C-12.443125 5.896875 -11.88625 5.79375 -11.3125 5.6875 C-8.67044543 5.06837421 -8.67044543 5.06837421 -5.9375 2.4375 C-3 0 -3 0 0 0 Z " fill="#502B78" transform="translate(50,45)"/>
<path d="M0 0 C0.66 0.66 1.32 1.32 2 2 C1.34 2.66 0.68 3.32 0 4 C-0.38403123 5.94151362 -0.38403123 5.94151362 -0.5 8.0625 C-0.665 9.361875 -0.83 10.66125 -1 12 C-1.99 12.495 -1.99 12.495 -3 13 C-3.33 11.02 -3.66 9.04 -4 7 C-4.54269531 7.37253906 -5.08539063 7.74507812 -5.64453125 8.12890625 C-6.35996094 8.60199219 -7.07539062 9.07507812 -7.8125 9.5625 C-8.87404297 10.27599609 -8.87404297 10.27599609 -9.95703125 11.00390625 C-12 12 -12 12 -15 11 C-17.6569191 11.87914688 -17.6569191 11.87914688 -20 13 C-20.33 12.01 -20.66 11.02 -21 10 C-18.39623165 7.50943897 -16.20250579 6.74513921 -12.75 6.125 C-7.74953918 5.16305397 -4.10544906 2.93086554 0 0 Z " fill="#2D81D1" transform="translate(51,28)"/>
<path d="M0 0 C1.5 1.3125 1.5 1.3125 3 3 C3 3.99 3 4.98 3 6 C8.86966702 7.71256167 15.49340758 8.10290066 21.125 5.625 C23.09669252 4.12579415 23.09669252 4.12579415 24 2 C24.66 2 25.32 2 26 2 C23.96442645 6.83577878 20.67308956 8.86276122 16 11 C10.77124667 11.72120736 7.43842525 10.82445243 3 8 C0.11907575 5.02304494 0 4.33178252 0 0 Z " fill="#244586" transform="translate(32,81)"/>
<path d="M0 0 C0.99 0.33 1.98 0.66 3 1 C3 1.66 3 2.32 3 3 C5.31 2.34 7.62 1.68 10 1 C9.34 2.32 8.68 3.64 8 5 C7.01 5 6.02 5 5 5 C3.01519936 5.79217416 3.01519936 5.79217416 1 6.875 C0.319375 7.22304688 -0.36125 7.57109375 -1.0625 7.9296875 C-2.758949 8.86683876 -4.3874119 9.92494126 -6 11 C-9.1875 11.125 -9.1875 11.125 -12 11 C-9.3234047 8.79574504 -6.68176537 6.79804341 -3.75 4.9375 C-0.74644659 3.22833883 -0.74644659 3.22833883 0 0 Z " fill="#3E9DDD" transform="translate(47,24)"/>
<path d="M0 0 C0.66 0 1.32 0 2 0 C3.9514993 3.90299859 3.16084083 8.1475436 2.375 12.3125 C1 15 1 15 -2.125 16.375 C-3.07375 16.58125 -4.0225 16.7875 -5 17 C-4.37017995 12.33933162 -4.37017995 12.33933162 -2.5 10.625 C0.14878976 7.75547776 0 3.77515595 0 0 Z " fill="#1C71A0" transform="translate(68,57)"/>
<path d="M0 0 C3.43435272 0.18564069 4.75792404 0.76464837 7.25 3.1875 C9.18393424 6.29560861 9.92050483 8.34322234 10 12 C8.625 13.875 8.625 13.875 7 15 C6.67 15 6.34 15 6 15 C5.87044922 13.98679687 5.87044922 13.98679687 5.73828125 12.953125 C4.87554197 7.05335764 4.87554197 7.05335764 1.375 2.375 C0.59125 1.92125 -0.1925 1.4675 -1 1 C-0.67 0.67 -0.34 0.34 0 0 Z " fill="#2FA8CF" transform="translate(66,50)"/>
<path d="M0 0 C0.99 0.495 0.99 0.495 2 1 C3.77603255 7.23804027 4.24339399 13.55005923 4 20 C1 18 1 18 0.3125 15.0625 C-0.21719983 10.06213363 -0.08171109 5.02069257 0 0 Z " fill="#297FB5" transform="translate(48,48)"/>
<path d="M0 0 C0 2.31 0 4.62 0 7 C-0.66 7 -1.32 7 -2 7 C-2 6.01 -2 5.02 -2 4 C-2.7425 4.33 -3.485 4.66 -4.25 5 C-7 6 -7 6 -11 6 C-11.33 5.01 -11.66 4.02 -12 3 C-4.71428571 -0.42857143 -4.71428571 -0.42857143 0 0 Z " fill="#723DB6" transform="translate(61,41)"/>
<path d="M0 0 C3.65316671 1.24976756 4.78065836 1.67098753 7 5 C7.165 6.19625 7.33 7.3925 7.5 8.625 C7.665 9.73875 7.83 10.8525 8 12 C8.66 12.33 9.32 12.66 10 13 C8.515 15.475 8.515 15.475 7 18 C6.01 17.67 5.02 17.34 4 17 C4.33 16.01 4.66 15.02 5 14 C5.06740865 12.43881572 5.08514456 10.8749748 5.0625 9.3125 C5.05347656 8.50425781 5.04445313 7.69601563 5.03515625 6.86328125 C5.02355469 6.24839844 5.01195313 5.63351563 5 5 C4.01 5.33 3.02 5.66 2 6 C1.34 4.02 0.68 2.04 0 0 Z " fill="#1598BD" transform="translate(65,52)"/>
<path d="M0 0 C-0.99 1.485 -0.99 1.485 -2 3 C-4.6015625 3.51171875 -4.6015625 3.51171875 -7.625 3.6875 C-9.12933594 3.78611328 -9.12933594 3.78611328 -10.6640625 3.88671875 C-11.43492188 3.92410156 -12.20578125 3.96148437 -13 4 C-13 4.66 -13 5.32 -13 6 C-12.34 6.33 -11.68 6.66 -11 7 C-11.99 7.66 -12.98 8.32 -14 9 C-15 6 -15 6 -13.8125 3.4375 C-9.77762012 -1.98871777 -6.18358238 -1.03059706 0 0 Z " fill="#3889C9" transform="translate(67,49)"/>
<path d="M0 0 C0.99 0.33 1.98 0.66 3 1 C2.525625 2.051875 2.05125 3.10375 1.5625 4.1875 C0.30676259 7.10175851 -0.52234381 9.84746914 -1 13 C-1.66 13 -2.32 13 -3 13 C-3 12.01 -3 11.02 -3 10 C-3.66 10 -4.32 10 -5 10 C-4.49701212 5.59885603 -2.91227269 3.28804981 0 0 Z " fill="#343BA4" transform="translate(31,43)"/>
<path d="M0 0 C0.66 0.99 1.32 1.98 2 3 C0.02 3.66 -1.96 4.32 -4 5 C-4.33 6.65 -4.66 8.3 -5 10 C-5.33 10 -5.66 10 -6 10 C-6 7.69 -6 5.38 -6 3 C-6.99 3.33 -7.98 3.66 -9 4 C-9.66 3.67 -10.32 3.34 -11 3 C-11 2.34 -11 1.68 -11 1 C-7.04340734 -0.31886422 -4.17660573 -0.26518132 0 0 Z " fill="#2572B9" transform="translate(65,52)"/>
<path d="M0 0 C1.32 0.33 2.64 0.66 4 1 C5.36834487 4.80095797 6.13190277 7.30091534 5.375 11.3125 C3.84023701 14.31226402 3.14545513 14.98235275 0 16 C-1.3242287 16.36784131 -2.65613912 16.71202981 -4 17 C-4 16.34 -4 15.68 -4 15 C-3.21625 14.54625 -2.4325 14.0925 -1.625 13.625 C1.17802358 11.88979492 2.08134278 11.12343454 3 8 C2.85125183 5.33696961 2.85125183 5.33696961 2 3 C1.34 2.67 0.68 2.34 0 2 C0 1.34 0 0.68 0 0 Z " fill="#AC55E1" transform="translate(70,21)"/>
<path d="M0 0 C1.48521677 0.75911079 2.96303425 1.53271234 4.4375 2.3125 C5.67306641 2.95638672 5.67306641 2.95638672 6.93359375 3.61328125 C9 5 9 5 10 8 C5.94393835 7.53199289 2.53411321 7.12046792 -1 5 C-0.67 3.35 -0.34 1.7 0 0 Z " fill="#1D2F75" transform="translate(33,66)"/>
<path d="M0 0 C3.78125025 1.26041675 4.01322327 2.68870545 6 6 C6.99 6.33 7.98 6.66 9 7 C8.67 8.32 8.34 9.64 8 11 C4.19986075 9.50708815 2.25081784 7.37622677 0 4 C0 2.68 0 1.36 0 0 Z " fill="#293E85" transform="translate(24,59)"/>
<path d="M0 0 C-0.825 0.45375 -1.65 0.9075 -2.5 1.375 C-3.325 1.91125 -4.15 2.4475 -5 3 C-5 3.66 -5 4.32 -5 5 C-6.53125 6.2890625 -6.53125 6.2890625 -8.5 7.625 C-9.1496875 8.07101563 -9.799375 8.51703125 -10.46875 8.9765625 C-10.9740625 9.31429687 -11.479375 9.65203125 -12 10 C-12.66 9.34 -13.32 8.68 -14 8 C-10.75150679 3.32216978 -6.05825152 -2.01941717 0 0 Z " fill="#8046B3" transform="translate(51,42)"/>
<path d="M0 0 C0.78375 0.04125 1.5675 0.0825 2.375 0.125 C5.375 6.625 5.375 6.625 5.375 11.125 C4.715 11.125 4.055 11.125 3.375 11.125 C3.16875 10.01125 2.9625 8.8975 2.75 7.75 C1.75871699 3.85900805 1.75871699 3.85900805 -1.75 2.6875 C-2.69875 2.501875 -3.6475 2.31625 -4.625 2.125 C-2.625 0.125 -2.625 0.125 0 0 Z " fill="#31E0F2" transform="translate(57.625,3.875)"/>
<path d="M0 0 C1.5 1.3125 1.5 1.3125 3 3 C3 3.99 3 4.98 3 6 C4.134375 6.28875 5.26875 6.5775 6.4375 6.875 C7.613125 7.24625 8.78875 7.6175 10 8 C10.33 8.66 10.66 9.32 11 10 C6.82811893 9.75931455 4.6494442 9.61613937 1.5625 6.6875 C0 4 0 4 0 0 Z " fill="#2A2A82" transform="translate(32,81)"/>
<path d="M0 0 C-1.66666667 3.33333333 -3.33333333 6.66666667 -5 10 C-5.99 9.67 -6.98 9.34 -8 9 C-7.38245741 7.68397477 -6.75571258 6.37226444 -6.125 5.0625 C-5.77695312 4.33160156 -5.42890625 3.60070312 -5.0703125 2.84765625 C-3.67632841 0.44125306 -2.76768491 0 0 0 Z " fill="#9258D5" transform="translate(68,25)"/>
<path d="M0 0 C1.37432457 3.81756824 0.67975039 7.07255329 0 11 C-1.32 10.34 -2.64 9.68 -4 9 C-2.80100302 5.9168649 -1.52299523 2.93720508 0 0 Z " fill="#2473A1" transform="translate(59,73)"/>
<path d="M0 0 C0.2475 0.61875 0.495 1.2375 0.75 1.875 C2.20628639 4.35068687 3.37812506 4.95125002 6 6 C4.68 6 3.36 6 2 6 C1.67 7.32 1.34 8.64 1 10 C0.67 8.68 0.34 7.36 0 6 C-1.32 5.67 -2.64 5.34 -4 5 C-2.68 4.67 -1.36 4.34 0 4 C0 2.68 0 1.36 0 0 Z " fill="#7F7FD6" transform="translate(21,70)"/>
<path d="M0 0 C1.32 0.33 2.64 0.66 4 1 C4 1.66 4 2.32 4 3 C-2.435 4.98 -2.435 4.98 -9 7 C-9.66 6.34 -10.32 5.68 -11 5 C-10.28972656 4.80664062 -9.57945313 4.61328125 -8.84765625 4.4140625 C-7.92855469 4.15367188 -7.00945313 3.89328125 -6.0625 3.625 C-4.68771484 3.24214844 -4.68771484 3.24214844 -3.28515625 2.8515625 C-0.83254913 2.23339896 -0.83254913 2.23339896 0 0 Z " fill="#814BCE" transform="translate(60,35)"/>
<path d="M0 0 C-2.77280706 3.08089673 -5.06326356 4.68775452 -9 6 C-9.33 5.01 -9.66 4.02 -10 3 C-6.68152292 -0.06320961 -4.44849969 -0.3033068 0 0 Z " fill="#3E80D6" transform="translate(40,35)"/>
<path d="M0 0 C0.33 0.66 0.66 1.32 1 2 C3.01669827 3.13350534 3.01669827 3.13350534 5 4 C5 5.32 5 6.64 5 8 C4.34 8 3.68 8 3 8 C2.67 7.34 2.34 6.68 2 6 C0.35636866 5.27840576 -1.31050386 4.60648579 -3 4 C-2.01 2.68 -1.02 1.36 0 0 Z " fill="#8340C9" transform="translate(69,21)"/>
<path d="M0 0 C0 1.32 0 2.64 0 4 C-0.33 3.34 -0.66 2.68 -1 2 C-2.65 2 -4.3 2 -6 2 C-6 2.66 -6 3.32 -6 4 C-6.99 4 -7.98 4 -9 4 C-6.73455663 -1.01633889 -5.27613404 -1.24961069 0 0 Z " fill="#4744AF" transform="translate(41,77)"/>
<path d="M0 0 C4.75 -0.125 4.75 -0.125 7 1 C7 1.99 7 2.98 7 4 C6.05125 3.979375 5.1025 3.95875 4.125 3.9375 C1.09333717 3.77448174 1.09333717 3.77448174 -1 5 C-1.33 4.01 -1.66 3.02 -2 2 C-1.34 2 -0.68 2 0 2 C0 1.34 0 0.68 0 0 Z " fill="#2F33A1" transform="translate(35,79)"/>
<path d="M0 0 C-1.45255699 3.82946843 -3.42895561 5.12050295 -7 7 C-7.66 6.01 -8.32 5.02 -9 4 C-3.375 0 -3.375 0 0 0 Z " fill="#376FCA" transform="translate(46,33)"/>
<path d="M0 0 C2 2 2 2 2.1953125 3.9453125 C2.13020833 5.96354167 2.06510417 7.98177083 2 10 C1.01 9.34 0.02 8.68 -1 8 C-1.25 4.4375 -1.25 4.4375 -1 1 C-0.67 0.67 -0.34 0.34 0 0 Z " fill="#1B78AE" transform="translate(50,58)"/>
<path d="M0 0 C0.33 0 0.66 0 1 0 C1 1.65 1 3.3 1 5 C2.32 5.33 3.64 5.66 5 6 C3.68 6.33 2.36 6.66 1 7 C1 8.65 1 10.3 1 12 C0.67 12 0.34 12 0 12 C0 10.35 0 8.7 0 7 C-1.32 6.34 -2.64 5.68 -4 5 C-2.68 5 -1.36 5 0 5 C0 3.35 0 1.7 0 0 Z " fill="#AD72DF" transform="translate(77,40)"/>
<path d="M0 0 C0.99 0.33 1.98 0.66 3 1 C1.68 2.65 0.36 4.3 -1 6 C-2.32 5.34 -3.64 4.68 -5 4 C-2.6875 1.9375 -2.6875 1.9375 0 0 Z " fill="#334CB9" transform="translate(36,38)"/>
<path d="M0 0 C0.33 0.99 0.66 1.98 1 3 C-0.98 3.99 -2.96 4.98 -5 6 C-5.66 5.01 -6.32 4.02 -7 3 C-3.375 0 -3.375 0 0 0 Z " fill="#5F319B" transform="translate(50,45)"/>
<path d="M0 0 C0.33 0.99 0.66 1.98 1 3 C-0.3125 5.1875 -0.3125 5.1875 -2 7 C-2.66 7 -3.32 7 -4 7 C-3.67 7.99 -3.34 8.98 -3 10 C-4.32 10 -5.64 10 -7 10 C-5.33248852 6.05860922 -2.77289351 3.2107188 0 0 Z " fill="#33B5DF" transform="translate(57,17)"/>
<path d="M0 0 C0.99 0.33 1.98 0.66 3 1 C2.3125 2.9375 2.3125 2.9375 1 5 C-1.625 5.75 -1.625 5.75 -4 6 C-4 5.01 -4 4.02 -4 3 C-2.1875 1.25 -2.1875 1.25 0 0 Z " fill="#592A89" transform="translate(42,49)"/>
<path d="M0 0 C2.64 0.66 5.28 1.32 8 2 C8 2.66 8 3.32 8 4 C5.36 4 2.72 4 0 4 C0 2.68 0 1.36 0 0 Z " fill="#214C87" transform="translate(42,71)"/>
<path d="M0 0 C1.32 0.33 2.64 0.66 4 1 C5.125 4.3125 5.125 4.3125 6 8 C5.01 9.485 5.01 9.485 4 11 C3.896875 9.88625 3.79375 8.7725 3.6875 7.625 C3.460625 6.42875 3.23375 5.2325 3 4 C2.01 3.34 1.02 2.68 0 2 C0 1.34 0 0.68 0 0 Z " fill="#B55FE9" transform="translate(70,21)"/>
<path d="M0 0 C0.66 0.33 1.32 0.66 2 1 C1.01347016 4.31832766 0.31268497 5.76548627 -2.5 7.875 C-3.325 8.24625 -4.15 8.6175 -5 9 C-5.66 8.67 -6.32 8.34 -7 8 C-5.47005208 6.79557292 -3.94010417 5.59114583 -2.41015625 4.38671875 C-0.72844923 2.94316909 -0.72844923 2.94316909 0 0 Z " fill="#934CCD" transform="translate(71,28)"/>
<path d="M0 0 C2.4375 0.8125 2.4375 0.8125 5 2 C5.33 2.99 5.66 3.98 6 5 C4.68 5.33 3.36 5.66 2 6 C1.34 4.02 0.68 2.04 0 0 Z " fill="#2B94C8" transform="translate(65,52)"/>
<path d="M0 0 C1.67542976 0.28604898 3.34385343 0.61781233 5 1 C5 3.64 5 6.28 5 9 C4.67 9 4.34 9 4 9 C3.67 6.69 3.34 4.38 3 2 C1.68 1.67 0.36 1.34 -1 1 C-0.67 0.67 -0.34 0.34 0 0 Z " fill="#21B3D1" transform="translate(55,7)"/>
<path d="M0 0 C2.31 0 4.62 0 7 0 C6.34 2.64 5.68 5.28 5 8 C4.67 8 4.34 8 4 8 C4 5.69 4 3.38 4 1 C3.01 1.33 2.02 1.66 1 2 C0.67 1.34 0.34 0.68 0 0 Z " fill="#255FA8" transform="translate(55,54)"/>
<path d="M0 0 C1.32 0 2.64 0 4 0 C4 1.98 4 3.96 4 6 C3.34 6 2.68 6 2 6 C2 5.01 2 4.02 2 3 C1.34 3 0.68 3 0 3 C0 2.01 0 1.02 0 0 Z " fill="#2C358D" transform="translate(26,50)"/>
<path d="M0 0 C0.268125 0.61875 0.53625 1.2375 0.8125 1.875 C1.95556848 4.2995233 1.95556848 4.2995233 5 6 C3.68 6 2.36 6 1 6 C0.67 7.32 0.34 8.64 0 10 C0 8.68 0 7.36 0 6 C-0.66 5.67 -1.32 5.34 -2 5 C-1.34 3.35 -0.68 1.7 0 0 Z " fill="#66B1E4" transform="translate(36,20)"/>
</svg>
